<svg width="430" height="932" viewBox="0 0 430 932" fill="none" xmlns="http://www.w3.org/2000/svg">
<mask id="mask0_1_3" style="mask-type:luminance" maskUnits="userSpaceOnUse" x="-275" y="0" width="928" height="932">
<path d="M653 0H-275V932H653V0Z" fill="white"/>
</mask>
<g mask="url(#mask0_1_3)">
<path d="M653 0H-275V932H653V0Z" fill="#2B9CF2"/>
<path d="M364.67 354.533C348.894 364.319 385.829 470.846 402.904 468.423C413.576 466.932 425.547 421.544 404.946 386.687C394.181 368.326 372.466 349.686 364.67 354.533Z" fill="#65BDFF"/>
<path d="M97.8704 267.204C70.9584 278.668 40.7984 291.809 28.3632 321.26C8.3184 368.606 54.44 405.793 32.5392 452.579C19.8256 479.607 2.1008 472.058 -23.048 503.653C-52.9296 541.306 -70.376 605.614 -44.2992 656.128C-24.44 694.713 12.8656 709.904 44.6032 722.859C55.5536 727.333 128.03 755.852 196.981 731.993C213.499 726.308 220.181 718.106 234.286 719.504C268.437 723.046 273.541 768.807 304.722 776.263C330.891 782.507 361.33 758.368 380.539 734.136C384.344 729.29 387.778 724.444 390.654 719.784C407.358 687.443 420.814 650.07 424.341 612.604C425.176 603.19 425.454 593.87 424.99 584.55C423.227 560.691 418.402 537.484 403.832 516.328C377.662 475.786 337.851 444.005 337.666 393.49C336.552 385.848 335.81 377.926 335.067 369.911C331.262 329.648 328.014 286.497 288.389 260.774C235.957 227.035 174.802 240.549 121.998 258.444C113.275 261.146 105.294 264.036 97.8704 267.204Z" fill="#65BDFF"/>
<path d="M187.925 173.529L183.563 174.088C179.573 174.647 175.953 171.851 175.397 167.844L169.55 124.413C168.993 120.405 171.777 116.77 175.768 116.211L180.129 115.652C184.12 115.093 187.739 117.889 188.296 121.896L194.142 165.327C194.699 169.335 191.915 172.97 187.925 173.529Z" fill="white"/>
<path d="M167.973 166.912C163.982 167.471 160.363 164.675 159.806 160.667L156.465 135.503C155.909 131.496 158.693 127.861 162.683 127.302C166.673 126.743 170.293 129.539 170.849 133.546L174.19 158.617C174.747 162.625 171.963 166.353 167.973 166.912Z" fill="white"/>
<path d="M256.133 164.302L260.494 163.743C264.485 163.184 267.269 159.549 266.712 155.541L260.865 112.11C260.309 108.103 256.689 105.307 252.699 105.866L248.337 106.425C244.347 106.984 241.563 110.619 242.12 114.627L247.966 158.058C248.523 162.065 252.142 164.861 256.133 164.302Z" fill="white"/>
<path d="M273.672 152.559C277.662 152 280.446 148.365 279.889 144.357L276.549 119.287C275.992 115.279 272.373 112.483 268.382 113.042C264.392 113.601 261.608 117.236 262.165 121.244L265.505 146.315C265.969 150.322 269.681 153.118 273.672 152.559Z" fill="white"/>
<path d="M192.295 151.037L246.099 143.769L244.096 128.805L190.291 136.073L192.295 151.037Z" fill="white"/>
<path d="M187.925 173.529L183.563 174.088C179.573 174.647 175.953 171.851 175.397 167.844L169.55 124.413C168.993 120.405 171.777 116.77 175.768 116.211L180.129 115.652C184.12 115.093 187.739 117.889 188.296 121.896L194.142 165.327C194.699 169.335 191.915 172.97 187.925 173.529Z" stroke="#4E5A7D" stroke-width="3" stroke-miterlimit="10" stroke-linecap="round" stroke-linejoin="round"/>
<path d="M167.973 166.912C163.982 167.471 160.363 164.675 159.806 160.667L156.465 135.503C155.909 131.496 158.693 127.861 162.683 127.302C166.673 126.743 170.293 129.539 170.849 133.546L174.19 158.617C174.747 162.625 171.963 166.353 167.973 166.912Z" stroke="#4E5A7D" stroke-width="3" stroke-miterlimit="10" stroke-linecap="round" stroke-linejoin="round"/>
<path d="M256.133 164.302L260.494 163.743C264.485 163.184 267.269 159.549 266.712 155.541L260.865 112.11C260.309 108.103 256.689 105.307 252.699 105.866L248.337 106.425C244.347 106.984 241.563 110.619 242.12 114.627L247.966 158.058C248.523 162.065 252.142 164.861 256.133 164.302Z" stroke="#4E5A7D" stroke-width="3" stroke-miterlimit="10" stroke-linecap="round" stroke-linejoin="round"/>
<path d="M273.672 152.559C277.662 152 280.446 148.365 279.889 144.357L276.549 119.287C275.992 115.279 272.373 112.483 268.382 113.042C264.392 113.601 261.608 117.236 262.165 121.244L265.505 146.315C265.969 150.322 269.681 153.118 273.672 152.559Z" stroke="#4E5A7D" stroke-width="3" stroke-miterlimit="10" stroke-linecap="round" stroke-linejoin="round"/>
<path d="M192.295 151.037L246.099 143.769L244.096 128.805L190.291 136.073L192.295 151.037Z" stroke="#4E5A7D" stroke-width="3" stroke-miterlimit="10" stroke-linecap="round" stroke-linejoin="round"/>
<path d="M304.35 692.662H103.346L110.862 660.322C114.76 643.546 135.362 631.337 159.49 631.337H248.206C272.334 631.337 292.936 643.639 296.834 660.322L304.35 692.662Z" fill="#E08484"/>
<path d="M304.35 692.662H103.346L110.862 660.322C114.76 643.546 135.362 631.337 159.49 631.337H248.206C272.334 631.337 292.936 643.639 296.834 660.322L304.35 692.662Z" stroke="#4E5A7D" stroke-width="6" stroke-miterlimit="10" stroke-linecap="round" stroke-linejoin="round"/>
<path d="M276.232 668.058H250.99C241.339 668.058 233.544 660.229 233.544 650.536V610.367H174.152V650.536C174.152 660.229 166.357 668.058 156.706 668.058H131.464C94.5296 668.058 64.6479 698.068 64.6479 735.162V789.87H343.048V735.162C343.048 698.068 313.074 668.058 276.232 668.058Z" fill="#FBE3D5"/>
<path d="M202.734 628.82C219.75 628.82 233.544 620.684 233.544 610.646C233.544 600.61 219.75 592.472 202.734 592.472C185.719 592.472 171.925 600.61 171.925 610.646C171.925 620.684 185.719 628.82 202.734 628.82Z" fill="#D5B6A5"/>
<path d="M343.048 735.162V789.87H64.6479V735.162C64.6479 698.068 94.5296 668.058 131.464 668.058H156.706C157.355 668.058 158.005 668.058 158.654 667.964C165.522 686.698 183.525 700.118 204.59 700.118C225.656 700.118 243.566 686.791 250.434 668.058C250.619 668.058 250.805 668.058 251.083 668.058H276.232C313.074 668.058 343.048 698.068 343.048 735.162Z" fill="#E08484"/>
<path d="M177.864 738.517C151.787 738.517 130.536 717.174 130.536 690.985V667.871H278.923V690.985C278.923 717.174 257.672 738.517 231.595 738.517H177.864Z" fill="#D87171"/>
<path d="M276.232 668.058H250.99C241.339 668.058 233.544 660.229 233.544 650.536V610.367H174.152V650.536C174.152 660.229 166.357 668.058 156.706 668.058H131.464C94.5296 668.058 64.6479 698.068 64.6479 735.162V789.87H343.048V735.162C343.048 698.068 313.074 668.058 276.232 668.058Z" stroke="#4E5A7D" stroke-width="6" stroke-miterlimit="10" stroke-linecap="round" stroke-linejoin="round"/>
<path d="M268.344 386.034C267.323 371.868 271.035 361.15 277.624 358.82C284.12 356.49 291.73 362.921 294.328 365.158C318.92 385.848 303.794 455.096 299.618 472.897L268.344 386.034Z" fill="#BCAFAA"/>
<path d="M266.488 386.034C265.467 371.868 269.179 361.15 275.768 358.82C277.067 358.354 278.366 358.261 279.666 358.354" stroke="#4E5A7D" stroke-width="6" stroke-miterlimit="10" stroke-linecap="round" stroke-linejoin="round"/>
<path d="M281.522 358.354C286.904 358.82 292.194 363.294 294.328 365.158C318.92 385.848 303.794 455.096 299.618 472.897L268.344 386.128" stroke="#4E5A7D" stroke-width="6" stroke-miterlimit="10" stroke-linecap="round" stroke-linejoin="round"/>
<path d="M106.872 479.234V447.826C106.872 412.13 138.331 421.357 173.781 421.357L239.39 423.874C259.992 423.874 272.427 393.024 284.12 408.123C283.749 397.125 281.707 383.145 275.304 368.513C271.778 360.311 257.022 329.276 223.058 315.016C211.55 310.17 201.992 309.051 196.146 308.399C173.781 305.882 164.594 301.875 126.174 312.593C101.861 319.303 84.4144 331.512 84.136 336.825C83.8576 341.671 95.6432 340.46 105.294 347.729C120.978 359.472 99.0768 385.941 96.0144 419.493C94.7152 433.846 95.9216 453.977 106.872 479.234Z" fill="#BCAFAA"/>
<path d="M279.666 380.442C278.459 375.596 276.046 370.284 275.304 368.513C271.778 360.311 257.022 329.276 223.058 315.016C211.55 310.17 201.992 309.051 196.146 308.399C173.781 305.882 158.654 303.459 120.235 314.177C95.9216 320.888 82.1872 326.573 84.136 336.825C85.3424 343.256 99.7264 341.485 108.078 353.601C119.214 369.818 99.0768 385.941 96.0144 419.586C94.7152 433.939 95.9216 454.07 106.872 479.328V447.919C106.872 412.224 138.331 421.45 173.781 421.45L239.39 423.967C259.992 423.967 272.427 393.118 284.12 408.216" stroke="#4E5A7D" stroke-width="6" stroke-miterlimit="10" stroke-linecap="round" stroke-linejoin="round"/>
<path d="M280.872 404.115C276.232 399.082 269.272 396.939 262.59 398.337C245.979 401.878 225.749 403.929 203.848 403.929C181.019 403.929 159.954 401.692 142.878 397.871C136.197 396.38 129.144 398.43 124.504 403.463C113.646 415.02 106.965 430.584 106.965 447.733V527.326C106.965 578.399 148.261 619.873 199.115 619.873H205.797C256.651 619.873 297.947 578.399 297.947 527.326V447.733C297.854 430.957 291.358 415.672 280.872 404.115Z" fill="#FBE3D5"/>
<path d="M205.704 608.503H199.022C148.168 608.503 106.872 567.029 106.872 515.955V525.555C106.872 576.628 148.168 618.102 199.022 618.102H205.704C256.558 618.102 297.854 576.628 297.854 525.555V515.955C297.854 567.029 256.558 608.503 205.704 608.503Z" fill="#D5B6A5"/>
<path d="M208.859 532.172C208.859 532.172 218.232 529.283 222.594 530.681C225.749 516.98 216.098 504.492 216.098 504.492" stroke="#4E5A7D" stroke-width="6" stroke-miterlimit="10" stroke-linecap="round" stroke-linejoin="round"/>
<path d="M227.605 571.689C222.222 575.23 215.355 577.374 207.746 577.374C190.856 577.374 177.122 566.749 177.122 553.701" stroke="#4E5A7D" stroke-width="6" stroke-miterlimit="10" stroke-linecap="round" stroke-linejoin="round"/>
<path d="M173.781 484.92C179.008 484.92 183.246 479.578 183.246 472.99C183.246 466.402 179.008 461.06 173.781 461.06C168.553 461.06 164.315 466.402 164.315 472.99C164.315 479.578 168.553 484.92 173.781 484.92Z" fill="#4E5A7D"/>
<path d="M243.938 484.454C249.165 484.454 253.403 479.112 253.403 472.524C253.403 465.936 249.165 460.594 243.938 460.594C238.71 460.594 234.472 465.936 234.472 472.524C234.472 479.112 238.71 484.454 243.938 484.454Z" fill="#4E5A7D"/>
<path d="M262.59 398.43C245.979 401.972 225.749 404.022 203.848 404.022C181.019 404.022 159.954 401.785 142.878 397.964C136.197 396.473 129.144 398.523 124.504 403.556C113.646 415.113 106.965 430.677 106.965 447.826V453.045C138.238 455.282 169.976 456.494 201.342 456.494C233.451 456.494 265.838 455.282 297.947 452.859V447.826C297.947 430.957 291.544 415.672 280.965 404.115C276.232 399.082 269.272 396.939 262.59 398.43Z" fill="#D5B6A5"/>
<path d="M280.872 404.115C276.232 399.082 269.272 396.939 262.59 398.337C245.979 401.878 225.749 403.929 203.848 403.929C181.019 403.929 159.954 401.692 142.878 397.871C136.197 396.38 129.144 398.43 124.504 403.463C113.646 415.02 106.965 430.584 106.965 447.733V527.326C106.965 578.399 148.261 619.873 199.115 619.873H205.797C256.651 619.873 297.947 578.399 297.947 527.326V447.733C297.854 430.957 291.358 415.672 280.872 404.115Z" stroke="#4E5A7D" stroke-width="6" stroke-miterlimit="10" stroke-linecap="round" stroke-linejoin="round"/>
<path d="M301.01 446.055C234.565 449.97 167.842 449.97 101.397 446.055C96.7568 445.776 93.1376 442.234 93.1376 437.854V416.604C93.1376 411.851 97.4992 408.123 102.603 408.402C168.306 412.317 234.194 412.317 299.896 408.402C305 408.123 309.362 411.851 309.362 416.604V437.854C309.362 442.234 305.742 445.776 301.01 446.055Z" fill="#84BDE1"/>
<path opacity="0.3" d="M299.896 408.496C234.194 412.41 168.306 412.41 102.603 408.496C97.4992 408.216 93.1376 411.944 93.1376 416.697V423.78C93.1376 419.027 97.4992 415.299 102.603 415.579C168.306 419.493 234.194 419.493 299.896 415.579C305 415.299 309.362 419.027 309.362 423.78V416.604C309.362 411.944 305 408.216 299.896 408.496Z" fill="#84BDE1"/>
<path d="M301.01 446.055C234.565 449.97 167.842 449.97 101.397 446.055C96.7568 445.776 93.1376 442.234 93.1376 437.854V416.604C93.1376 411.851 97.4992 408.123 102.603 408.402C168.306 412.317 234.194 412.317 299.896 408.402C305 408.123 309.362 411.851 309.362 416.604V437.854C309.362 442.234 305.742 445.776 301.01 446.055Z" stroke="#4E5A7D" stroke-width="6" stroke-miterlimit="10" stroke-linecap="round" stroke-linejoin="round"/>
<path d="M275.304 366.928C275.304 366.928 294.421 366.928 297.762 403.37" stroke="#4E5A7D" stroke-width="4" stroke-miterlimit="10" stroke-linecap="round" stroke-linejoin="round"/>
<path d="M168.306 321.82C207.746 323.87 244.587 343.628 249.042 378.019" stroke="#4E5A7D" stroke-width="4" stroke-miterlimit="10" stroke-linecap="round" stroke-linejoin="round"/>
<path d="M141.394 324.802C146.498 323.218 152.994 321.726 159.675 321.82" stroke="#4E5A7D" stroke-width="4" stroke-miterlimit="10" stroke-linecap="round" stroke-linejoin="round"/>
<path d="M171.554 343.069C192.898 346.518 220.552 349.873 230.853 385.196" stroke="#4E5A7D" stroke-width="4" stroke-miterlimit="10" stroke-linecap="round" stroke-linejoin="round"/>
<path d="M201.25 588.372C201.25 588.372 206.539 591.54 216.098 588.372" stroke="#4E5A7D" stroke-width="6" stroke-miterlimit="10" stroke-linecap="round" stroke-linejoin="round"/>
<path d="M158.469 539.442C168.104 539.442 175.915 531.597 175.915 521.92C175.915 512.243 168.104 504.398 158.469 504.398C148.833 504.398 141.022 512.243 141.022 521.92C141.022 531.597 148.833 539.442 158.469 539.442Z" fill="#F5CFC4"/>
<path d="M250.526 539.442C260.162 539.442 267.973 531.597 267.973 521.92C267.973 512.243 260.162 504.398 250.526 504.398C240.891 504.398 233.08 512.243 233.08 521.92C233.08 531.597 240.891 539.442 250.526 539.442Z" fill="#F5CFC4"/>
<path d="M104.274 502.628H106.13V453.604H104.274C98.1488 453.604 93.1376 458.637 93.1376 464.788V491.444C93.1376 497.595 98.1488 502.628 104.274 502.628Z" fill="#FEF0E3"/>
<path d="M104.274 502.628H106.13V453.604H104.274C98.1488 453.604 93.1376 458.637 93.1376 464.788V491.444C93.1376 497.595 98.1488 502.628 104.274 502.628Z" stroke="#4E5A7D" stroke-width="6" stroke-miterlimit="10" stroke-linecap="round" stroke-linejoin="round"/>
<path d="M299.71 502.628H297.854V453.604H299.71C305.835 453.604 310.846 458.637 310.846 464.788V491.444C310.846 497.595 305.835 502.628 299.71 502.628Z" fill="#FEF0E3"/>
<path d="M299.71 502.628H297.854V453.604H299.71C305.835 453.604 310.846 458.637 310.846 464.788V491.444C310.846 497.595 305.835 502.628 299.71 502.628Z" stroke="#4E5A7D" stroke-width="6" stroke-miterlimit="10" stroke-linecap="round" stroke-linejoin="round"/>
<path d="M231.595 731.061H177.864C155.87 731.061 137.96 713.073 137.96 690.985V653.705H271.499V690.985C271.499 713.166 253.682 731.061 231.595 731.061Z" fill="#E08484"/>
<path d="M271.499 653.705V690.985C271.499 713.073 253.589 731.061 231.595 731.061H177.864C155.87 731.061 137.96 713.073 137.96 690.985V653.705" stroke="#4E5A7D" stroke-width="6" stroke-miterlimit="10" stroke-linecap="round" stroke-linejoin="round"/>
<path d="M250.341 668.058C243.474 686.791 225.47 700.118 204.498 700.118C183.432 700.118 165.429 686.698 158.562 667.964C167.285 667.032 174.152 659.576 174.152 650.536V647.274H233.544V650.536C233.544 659.949 240.968 667.685 250.341 668.058Z" fill="#FBE3D5"/>
<path d="M244.03 666.566C237.813 682.783 222.315 693.594 204.498 693.594C186.494 693.594 170.904 682.504 164.779 666.007C162.923 667.032 160.789 667.685 158.562 667.964C165.429 686.698 183.432 700.118 204.498 700.118C225.563 700.118 243.474 686.791 250.341 668.058C248.114 667.964 245.979 667.405 244.03 666.566Z" fill="#EDD4C6"/>
<path d="M233.544 647.181V650.443C233.544 658.551 239.019 665.448 246.536 667.405C248.485 667.964 249.598 670.108 248.763 671.972C240.875 688.562 224.078 700.025 204.59 700.025C184.917 700.025 168.027 688.375 160.232 671.599C159.397 669.828 160.325 667.685 162.274 667.126C169.234 664.796 174.245 658.272 174.245 650.443V647.181" stroke="#4E5A7D" stroke-width="6" stroke-miterlimit="10" stroke-linecap="round" stroke-linejoin="round"/>
<path d="M156.798 662C161.81 683.808 181.205 700.118 204.498 700.118C227.79 700.118 247.186 683.808 252.197 662" stroke="#4E5A7D" stroke-width="6" stroke-miterlimit="10" stroke-linecap="round" stroke-linejoin="round"/>
<path d="M170.162 714.751C174.261 714.751 177.586 712.832 177.586 710.464C177.586 708.096 174.261 706.176 170.162 706.176C166.062 706.176 162.738 708.096 162.738 710.464C162.738 712.832 166.062 714.751 170.162 714.751Z" fill="#4E5A7D"/>
<path d="M170.162 710.464V759.021" stroke="#4E5A7D" stroke-width="8" stroke-miterlimit="10" stroke-linecap="round" stroke-linejoin="round"/>
<path d="M237.442 714.751C241.541 714.751 244.866 712.832 244.866 710.464C244.866 708.096 241.541 706.176 237.442 706.176C233.342 706.176 230.018 708.096 230.018 710.464C230.018 712.832 233.342 714.751 237.442 714.751Z" fill="#4E5A7D"/>
<path d="M237.442 710.464V745.973" stroke="#4E5A7D" stroke-width="8" stroke-miterlimit="10" stroke-linecap="round" stroke-linejoin="round"/>
<path d="M172.853 771.882H167.285C163.758 771.882 161.16 768.62 161.995 765.172L164.408 754.361H175.73L178.142 765.172C178.978 768.62 176.379 771.882 172.853 771.882Z" fill="#FEF0E3"/>
<path d="M172.853 771.882H167.285C163.758 771.882 161.16 768.62 161.995 765.172L164.408 754.361H175.73L178.142 765.172C178.978 768.62 176.379 771.882 172.853 771.882Z" stroke="#4E5A7D" stroke-width="6" stroke-miterlimit="10" stroke-linecap="round" stroke-linejoin="round"/>
<path d="M240.226 763.122H234.658C231.131 763.122 228.533 759.86 229.368 756.411L231.781 745.6H243.102L245.515 756.411C246.35 759.86 243.752 763.122 240.226 763.122Z" fill="#FEF0E3"/>
<path d="M240.226 763.122H234.658C231.131 763.122 228.533 759.86 229.368 756.411L231.781 745.6H243.102L245.515 756.411C246.35 759.86 243.752 763.122 240.226 763.122Z" stroke="#4E5A7D" stroke-width="6" stroke-miterlimit="10" stroke-linecap="round" stroke-linejoin="round"/>
<path opacity="0.58" d="M196.424 664.236C196.424 664.236 199.394 664.516 202.734 667.964C202.734 667.964 206.632 664.236 209.973 664.236" stroke="#D5B6A5" stroke-width="6" stroke-miterlimit="10" stroke-linecap="round" stroke-linejoin="round"/>
<path d="M207.746 381.281C207.746 381.281 205.704 369.538 185.102 363.107" stroke="#4E5A7D" stroke-width="4" stroke-miterlimit="10" stroke-linecap="round" stroke-linejoin="round"/>
<path d="M121.349 754.361V789.87" stroke="#4E5A7D" stroke-width="6" stroke-miterlimit="10" stroke-linecap="round" stroke-linejoin="round"/>
<path d="M284.213 754.361V789.87" stroke="#4E5A7D" stroke-width="6" stroke-miterlimit="10" stroke-linecap="round" stroke-linejoin="round"/>
<path d="M409.214 191.06L400.12 181.554C391.304 172.327 376.642 172.14 368.011 181.554C359.659 190.687 356.968 207.37 368.29 225.917C379.704 244.464 409.122 257.046 409.122 257.046C409.122 257.046 438.632 244.464 449.954 225.917C461.368 207.37 458.677 190.687 450.232 181.554C441.602 172.14 426.939 172.327 418.123 181.554L409.214 191.06Z" fill="white"/>
<path d="M409.214 191.06L400.12 181.554C391.304 172.327 376.642 172.14 368.011 181.554C359.659 190.687 356.968 207.37 368.29 225.917C379.704 244.464 409.122 257.046 409.122 257.046C409.122 257.046 438.632 244.464 449.954 225.917C461.368 207.37 458.677 190.687 450.232 181.554C441.602 172.14 426.939 172.327 418.123 181.554L409.214 191.06Z" stroke="#4E5A7D" stroke-width="3" stroke-miterlimit="10" stroke-linecap="round" stroke-linejoin="round"/>
<path d="M377.755 221.164H392.418L399.563 202.337L409.214 235.423L416.082 220.325L421.371 228.62L428.424 202.337L434.92 218.927H442.994" stroke="#4E5A7D" stroke-width="3" stroke-miterlimit="10" stroke-linecap="round" stroke-linejoin="round"/>
<path d="M9.32416 154.198C9.32416 154.198 -11.6486 204.06 -11.6486 223.632C-11.6486 243.204 -9.97823 248.517 -9.97823 248.517C-9.97823 248.517 35.5866 255.227 60.8282 243.297C86.1626 231.368 93.401 214.778 93.401 214.778C93.401 214.778 93.1226 185.979 76.6042 184.115C69.8298 183.37 60.2714 184.581 56.8378 193.529C52.105 205.831 55.4458 210.398 55.4458 210.398C51.5482 206.483 45.2378 200.985 32.617 200.985C19.9962 200.985 13.3145 214.778 13.3145 214.778L14.2425 174.702L36.7002 172.745L40.8762 154.198L27.513 138.541L9.32416 154.198Z" fill="white"/>
<path d="M9.32416 154.198C9.32416 154.198 -11.6486 204.06 -11.6486 223.632C-11.6486 243.204 -9.97823 248.517 -9.97823 248.517C-9.97823 248.517 35.5866 255.227 60.8282 243.297C86.1626 231.368 93.401 214.778 93.401 214.778C93.401 214.778 93.1226 185.979 76.6042 184.115C69.8298 183.37 60.2714 184.581 56.8378 193.529C52.105 205.831 55.4458 210.398 55.4458 210.398C51.5482 206.483 45.2378 200.985 32.617 200.985C19.9962 200.985 13.3145 214.778 13.3145 214.778L14.2425 174.702L36.7002 172.745L40.8762 154.198L27.513 138.541L9.32416 154.198Z" stroke="#4E5A7D" stroke-width="3" stroke-miterlimit="10" stroke-linecap="round" stroke-linejoin="round"/>
<path d="M27.6985 226.801C27.6985 226.801 39.4841 231.368 50.5273 226.801" stroke="#4E5A7D" stroke-width="3" stroke-miterlimit="10" stroke-linecap="round" stroke-linejoin="round"/>
<path d="M0.508118 228.758V239.662H9.32412" stroke="#4E5A7D" stroke-width="3" stroke-miterlimit="10" stroke-linecap="round" stroke-linejoin="round"/>
<path d="M54.5668 151.763L61.0936 151.185" stroke="white" stroke-width="2" stroke-miterlimit="10" stroke-linecap="round" stroke-linejoin="round"/>
<path d="M49.4997 145.503L53.4396 139.037" stroke="white" stroke-width="2" stroke-miterlimit="10" stroke-linecap="round" stroke-linejoin="round"/>
<path d="M52.808 148.02L59.172 143.24" stroke="white" stroke-width="2" stroke-miterlimit="10" stroke-linecap="round" stroke-linejoin="round"/>
<path d="M413.112 175.962L416.267 169.717" stroke="white" stroke-width="2" stroke-miterlimit="10" stroke-linecap="round" stroke-linejoin="round"/>
<path d="M406.059 176.894L402.718 169.717" stroke="white" stroke-width="2" stroke-miterlimit="10" stroke-linecap="round" stroke-linejoin="round"/>
<path d="M409.214 175.962V165.989" stroke="white" stroke-width="2" stroke-miterlimit="10" stroke-linecap="round" stroke-linejoin="round"/>
<path d="M-63.7872 789.87H381.653" stroke="#4E5A7D" stroke-width="6" stroke-miterlimit="10" stroke-linecap="round" stroke-linejoin="round"/>
<path d="M407.173 789.87H439.189" stroke="#4E5A7D" stroke-width="6" stroke-miterlimit="10" stroke-linecap="round" stroke-linejoin="round"/>
</g>
</svg>
