<svg width="430" height="553" viewBox="0 0 430 553" fill="none" xmlns="http://www.w3.org/2000/svg">
<path d="M364.67 114.533C348.894 124.319 385.829 230.846 402.904 228.423C413.576 226.932 425.547 181.544 404.946 146.687C394.181 128.326 372.466 109.686 364.67 114.533Z" fill="#65BDFF"/>
<path d="M97.8704 27.2044C70.9584 38.668 40.7984 51.8092 28.3632 81.2604C8.3184 128.606 54.44 165.793 32.5392 212.579C19.8256 239.607 2.1008 232.058 -23.048 263.653C-52.9296 301.306 -70.376 365.614 -44.2992 416.128C-24.44 454.713 12.8656 469.904 44.6032 482.859C55.5536 487.333 128.03 515.852 196.981 491.993C213.499 486.308 220.181 478.106 234.286 479.504C268.437 483.046 273.541 528.807 304.722 536.263C330.891 542.507 361.33 518.368 380.539 494.136C384.344 489.29 387.778 484.444 390.654 479.784C407.358 447.443 420.814 410.07 424.341 372.604C425.176 363.19 425.454 353.87 424.99 344.55C423.227 320.691 418.402 297.484 403.832 276.328C377.662 235.786 337.851 204.005 337.666 153.49C336.552 145.848 335.81 137.926 335.067 129.911C331.262 89.6484 328.014 46.4968 288.389 20.7736C235.957 -12.9648 174.802 0.5492 121.998 18.4436C113.275 21.1464 105.294 24.0356 97.8704 27.2044Z" fill="#65BDFF"/>
<path d="M314.469 142.497L305.375 132.99C296.559 123.763 281.896 123.577 273.266 132.99C264.914 142.124 262.223 158.807 273.544 177.353C284.959 195.9 314.376 208.482 314.376 208.482C314.376 208.482 343.887 195.9 355.208 177.353C366.623 158.807 363.931 142.124 355.487 132.99C346.856 123.577 332.194 123.763 323.378 132.99L314.469 142.497Z" fill="white"/>
<path d="M314.469 142.497L305.375 132.99C296.559 123.763 281.896 123.577 273.266 132.99C264.914 142.124 262.223 158.807 273.544 177.353C284.959 195.9 314.376 208.482 314.376 208.482C314.376 208.482 343.887 195.9 355.208 177.353C366.623 158.807 363.931 142.124 355.487 132.99C346.856 123.577 332.194 123.763 323.378 132.99L314.469 142.497Z" stroke="#4E5A7D" stroke-width="3" stroke-miterlimit="10" stroke-linecap="round" stroke-linejoin="round"/>
<path d="M283.01 172.6H297.672L304.818 153.774L314.469 186.86L321.336 171.761L326.626 180.056L333.679 153.774L340.175 170.363H348.248" stroke="#4E5A7D" stroke-width="3" stroke-miterlimit="10" stroke-linecap="round" stroke-linejoin="round"/>
<path d="M83.0214 115.658C83.0214 115.658 62.0486 165.52 62.0486 185.092C62.0486 204.664 63.719 209.976 63.719 209.976C63.719 209.976 109.284 216.686 134.525 204.757C159.86 192.827 167.098 176.238 167.098 176.238C167.098 176.238 166.82 147.439 150.301 145.575C143.527 144.829 133.969 146.041 130.535 154.988C125.802 167.29 129.143 171.857 129.143 171.857C125.245 167.943 118.935 162.444 106.314 162.444C93.6935 162.444 87.0118 176.238 87.0118 176.238L87.9398 136.162L110.397 134.204L114.573 115.658L101.21 100L83.0214 115.658Z" fill="white"/>
<path d="M83.0214 115.658C83.0214 115.658 62.0486 165.52 62.0486 185.092C62.0486 204.664 63.719 209.976 63.719 209.976C63.719 209.976 109.284 216.686 134.525 204.757C159.86 192.827 167.098 176.238 167.098 176.238C167.098 176.238 166.82 147.439 150.301 145.575C143.527 144.829 133.969 146.041 130.535 154.988C125.802 167.29 129.143 171.857 129.143 171.857C125.245 167.943 118.935 162.444 106.314 162.444C93.6935 162.444 87.0118 176.238 87.0118 176.238L87.9398 136.162L110.397 134.204L114.573 115.658L101.21 100L83.0214 115.658Z" stroke="#4E5A7D" stroke-width="3" stroke-miterlimit="10" stroke-linecap="round" stroke-linejoin="round"/>
<path d="M101.396 188.26C101.396 188.26 113.181 192.827 124.225 188.26" stroke="#4E5A7D" stroke-width="3" stroke-miterlimit="10" stroke-linecap="round" stroke-linejoin="round"/>
<path d="M74.2054 190.218V201.122H83.0214" stroke="#4E5A7D" stroke-width="3" stroke-miterlimit="10" stroke-linecap="round" stroke-linejoin="round"/>
<path d="M128.264 113.222L134.791 112.645" stroke="white" stroke-width="2" stroke-miterlimit="10" stroke-linecap="round" stroke-linejoin="round"/>
<path d="M123.197 106.963L127.137 100.496" stroke="white" stroke-width="2" stroke-miterlimit="10" stroke-linecap="round" stroke-linejoin="round"/>
<path d="M126.505 109.479L132.869 104.7" stroke="white" stroke-width="2" stroke-miterlimit="10" stroke-linecap="round" stroke-linejoin="round"/>
<path d="M59.3424 219.316L57.7648 225.654" stroke="white" stroke-width="2" stroke-miterlimit="10" stroke-linecap="round" stroke-linejoin="round"/>
<path d="M53.96 213.351L47 216.241" stroke="white" stroke-width="2" stroke-miterlimit="10" stroke-linecap="round" stroke-linejoin="round"/>
<path d="M55.9088 216.986L50.248 222.578" stroke="white" stroke-width="2" stroke-miterlimit="10" stroke-linecap="round" stroke-linejoin="round"/>
<path d="M-63.7872 549.87H381.653" stroke="#4E5A7D" stroke-width="6" stroke-miterlimit="10" stroke-linecap="round" stroke-linejoin="round"/>
<path d="M407.173 549.87H439.189" stroke="#4E5A7D" stroke-width="6" stroke-miterlimit="10" stroke-linecap="round" stroke-linejoin="round"/>
</svg>
