<svg width="430" height="689" viewBox="0 0 430 689" fill="none" xmlns="http://www.w3.org/2000/svg">
<path d="M364.67 250.533C348.894 260.319 385.829 366.846 402.904 364.423C413.576 362.932 425.547 317.544 404.946 282.687C394.181 264.326 372.466 245.686 364.67 250.533Z" fill="#65BDFF"/>
<path d="M97.8704 163.204C70.9584 174.668 40.7984 187.809 28.3632 217.26C8.3184 264.606 54.44 301.793 32.5392 348.579C19.8256 375.607 2.1008 368.058 -23.048 399.653C-52.9296 437.306 -70.376 501.614 -44.2992 552.128C-24.44 590.713 12.8656 605.904 44.6032 618.859C55.5536 623.333 128.03 651.852 196.981 627.993C213.499 622.308 220.181 614.106 234.286 615.504C268.437 619.046 273.541 664.807 304.722 672.263C330.891 678.507 361.33 654.368 380.539 630.136C384.344 625.29 387.778 620.444 390.654 615.784C407.358 583.443 420.814 546.07 424.341 508.604C425.176 499.19 425.454 489.87 424.99 480.55C423.227 456.691 418.402 433.484 403.832 412.328C377.662 371.786 337.851 340.005 337.666 289.49C336.552 281.848 335.81 273.926 335.067 265.911C331.262 225.648 328.014 182.497 288.389 156.774C235.957 123.035 174.802 136.549 121.998 154.444C113.275 157.146 105.294 160.036 97.8704 163.204Z" fill="#65BDFF"/>
<path d="M187.925 69.5289L183.563 70.0881C179.573 70.6473 175.953 67.8514 175.397 63.8438L169.55 20.4126C168.993 16.405 171.777 12.7701 175.768 12.2109L180.129 11.6518C184.12 11.0926 187.739 13.8885 188.296 17.8961L194.142 61.3274C194.699 65.3349 191.915 68.9697 187.925 69.5289Z" fill="white"/>
<path d="M167.973 62.9117C163.982 63.4709 160.363 60.6749 159.806 56.6673L156.465 31.5033C155.909 27.4957 158.693 23.8609 162.683 23.3017C166.673 22.7425 170.293 25.5385 170.849 29.5461L174.19 54.6169C174.747 58.6245 171.963 62.3525 167.973 62.9117Z" fill="white"/>
<path d="M256.133 60.3021L260.494 59.7429C264.485 59.1837 267.269 55.5489 266.712 51.5413L260.865 8.11013C260.309 4.10253 256.689 1.30655 252.699 1.86575L248.337 2.42493C244.347 2.98413 241.563 6.61894 242.12 10.6265L247.966 54.0578C248.523 58.0653 252.142 60.8613 256.133 60.3021Z" fill="white"/>
<path d="M273.672 48.5589C277.662 47.9997 280.446 44.3649 279.889 40.3573L276.549 15.2866C275.992 11.279 272.373 8.48294 268.382 9.04214C264.392 9.60134 261.608 13.2362 262.165 17.2438L265.505 42.3146C265.969 46.3222 269.681 49.1181 273.672 48.5589Z" fill="white"/>
<path d="M192.295 47.037L246.099 39.7692L244.096 24.8051L190.291 32.0728L192.295 47.037Z" fill="white"/>
<path d="M187.925 69.5289L183.563 70.0881C179.573 70.6473 175.953 67.8514 175.397 63.8438L169.55 20.4126C168.993 16.405 171.777 12.7701 175.768 12.2109L180.129 11.6518C184.12 11.0926 187.739 13.8885 188.296 17.8961L194.142 61.3273C194.699 65.3349 191.915 68.9697 187.925 69.5289Z" stroke="#4E5A7D" stroke-width="3" stroke-miterlimit="10" stroke-linecap="round" stroke-linejoin="round"/>
<path d="M167.973 62.9117C163.982 63.4709 160.363 60.6749 159.806 56.6673L156.465 31.5033C155.909 27.4957 158.693 23.8609 162.683 23.3017C166.673 22.7425 170.293 25.5385 170.849 29.5461L174.19 54.6169C174.747 58.6245 171.963 62.3525 167.973 62.9117Z" stroke="#4E5A7D" stroke-width="3" stroke-miterlimit="10" stroke-linecap="round" stroke-linejoin="round"/>
<path d="M256.133 60.3021L260.494 59.7429C264.485 59.1837 267.269 55.5489 266.712 51.5413L260.865 8.11013C260.309 4.10253 256.689 1.30655 252.699 1.86575L248.337 2.42493C244.347 2.98413 241.563 6.61894 242.12 10.6265L247.966 54.0577C248.523 58.0653 252.142 60.8613 256.133 60.3021Z" stroke="#4E5A7D" stroke-width="3" stroke-miterlimit="10" stroke-linecap="round" stroke-linejoin="round"/>
<path d="M273.672 48.5589C277.662 47.9997 280.446 44.3649 279.889 40.3573L276.549 15.2866C275.992 11.279 272.373 8.48294 268.382 9.04214C264.392 9.60134 261.608 13.2362 262.165 17.2438L265.505 42.3146C265.969 46.3222 269.681 49.1181 273.672 48.5589Z" stroke="#4E5A7D" stroke-width="3" stroke-miterlimit="10" stroke-linecap="round" stroke-linejoin="round"/>
<path d="M192.295 47.037L246.099 39.7692L244.096 24.8051L190.291 32.0728L192.295 47.037Z" stroke="#4E5A7D" stroke-width="3" stroke-miterlimit="10" stroke-linecap="round" stroke-linejoin="round"/>
<path d="M304.35 588.662H103.346L110.862 556.322C114.76 539.546 135.362 527.337 159.49 527.337H248.206C272.334 527.337 292.936 539.639 296.834 556.322L304.35 588.662Z" fill="#E08484"/>
<path d="M304.35 588.662H103.346L110.862 556.322C114.76 539.546 135.362 527.337 159.49 527.337H248.206C272.334 527.337 292.936 539.639 296.834 556.322L304.35 588.662Z" stroke="#4E5A7D" stroke-width="6" stroke-miterlimit="10" stroke-linecap="round" stroke-linejoin="round"/>
<path d="M276.232 564.058H250.99C241.339 564.058 233.544 556.229 233.544 546.536V506.367H174.152V546.536C174.152 556.229 166.357 564.058 156.706 564.058H131.464C94.5296 564.058 64.6479 594.068 64.6479 631.162V685.87H343.048V631.162C343.048 594.068 313.074 564.058 276.232 564.058Z" fill="#FBE3D5"/>
<path d="M202.734 524.82C219.75 524.82 233.544 516.684 233.544 506.646C233.544 496.61 219.75 488.472 202.734 488.472C185.719 488.472 171.925 496.61 171.925 506.646C171.925 516.684 185.719 524.82 202.734 524.82Z" fill="#D5B6A5"/>
<path d="M343.048 631.162V685.87H64.6479V631.162C64.6479 594.068 94.5296 564.058 131.464 564.058H156.706C157.355 564.058 158.005 564.058 158.654 563.964C165.522 582.698 183.525 596.118 204.59 596.118C225.656 596.118 243.566 582.791 250.434 564.058C250.619 564.058 250.805 564.058 251.083 564.058H276.232C313.074 564.058 343.048 594.068 343.048 631.162Z" fill="#E08484"/>
<path d="M177.864 634.517C151.787 634.517 130.536 613.174 130.536 586.985V563.871H278.923V586.985C278.923 613.174 257.672 634.517 231.595 634.517H177.864Z" fill="#D87171"/>
<path d="M276.232 564.058H250.99C241.339 564.058 233.544 556.229 233.544 546.536V506.367H174.152V546.536C174.152 556.229 166.357 564.058 156.706 564.058H131.464C94.5296 564.058 64.6479 594.068 64.6479 631.162V685.87H343.048V631.162C343.048 594.068 313.074 564.058 276.232 564.058Z" stroke="#4E5A7D" stroke-width="6" stroke-miterlimit="10" stroke-linecap="round" stroke-linejoin="round"/>
<path d="M268.344 282.034C267.323 267.868 271.035 257.15 277.624 254.82C284.12 252.49 291.73 258.921 294.328 261.158C318.92 281.848 303.794 351.096 299.618 368.897L268.344 282.034Z" fill="#BCAFAA"/>
<path d="M266.488 282.034C265.467 267.868 269.179 257.15 275.768 254.82C277.067 254.354 278.366 254.261 279.666 254.354" stroke="#4E5A7D" stroke-width="6" stroke-miterlimit="10" stroke-linecap="round" stroke-linejoin="round"/>
<path d="M281.522 254.354C286.904 254.82 292.194 259.294 294.328 261.158C318.92 281.848 303.794 351.096 299.618 368.897L268.344 282.128" stroke="#4E5A7D" stroke-width="6" stroke-miterlimit="10" stroke-linecap="round" stroke-linejoin="round"/>
<path d="M106.872 375.234V343.826C106.872 308.13 138.331 317.357 173.781 317.357L239.39 319.874C259.992 319.874 272.427 289.024 284.12 304.123C283.749 293.125 281.707 279.145 275.304 264.513C271.778 256.311 257.022 225.276 223.058 211.016C211.55 206.17 201.992 205.051 196.146 204.399C173.781 201.882 164.594 197.875 126.174 208.593C101.861 215.303 84.4144 227.512 84.136 232.825C83.8576 237.671 95.6432 236.46 105.294 243.729C120.978 255.472 99.0768 281.941 96.0144 315.493C94.7152 329.846 95.9216 349.977 106.872 375.234Z" fill="#BCAFAA"/>
<path d="M279.666 276.442C278.459 271.596 276.046 266.283 275.304 264.513C271.778 256.311 257.022 225.276 223.058 211.016C211.55 206.17 201.992 205.051 196.146 204.399C173.781 201.882 158.654 199.459 120.235 210.177C95.9216 216.888 82.1872 222.573 84.136 232.825C85.3424 239.255 99.7264 237.485 108.078 249.601C119.214 265.817 99.0768 281.941 96.0144 315.586C94.7152 329.939 95.9216 350.07 106.872 375.327V343.919C106.872 308.224 138.331 317.45 173.781 317.45L239.39 319.967C259.992 319.967 272.427 289.118 284.12 304.216" stroke="#4E5A7D" stroke-width="6" stroke-miterlimit="10" stroke-linecap="round" stroke-linejoin="round"/>
<path d="M280.872 300.115C276.232 295.082 269.272 292.939 262.59 294.337C245.979 297.878 225.749 299.929 203.848 299.929C181.019 299.929 159.954 297.692 142.878 293.871C136.197 292.38 129.144 294.43 124.504 299.463C113.646 311.02 106.965 326.584 106.965 343.733V423.326C106.965 474.399 148.261 515.873 199.115 515.873H205.797C256.651 515.873 297.947 474.399 297.947 423.326V343.733C297.854 326.957 291.358 311.672 280.872 300.115Z" fill="#FBE3D5"/>
<path d="M205.704 504.503H199.022C148.168 504.503 106.872 463.029 106.872 411.955V421.555C106.872 472.628 148.168 514.102 199.022 514.102H205.704C256.558 514.102 297.854 472.628 297.854 421.555V411.955C297.854 463.029 256.558 504.503 205.704 504.503Z" fill="#D5B6A5"/>
<path d="M208.859 428.172C208.859 428.172 218.232 425.283 222.594 426.681C225.749 412.98 216.098 400.492 216.098 400.492" stroke="#4E5A7D" stroke-width="6" stroke-miterlimit="10" stroke-linecap="round" stroke-linejoin="round"/>
<path d="M227.605 467.689C222.222 471.23 215.355 473.374 207.746 473.374C190.856 473.374 177.122 462.749 177.122 449.701" stroke="#4E5A7D" stroke-width="6" stroke-miterlimit="10" stroke-linecap="round" stroke-linejoin="round"/>
<path d="M173.781 380.92C179.008 380.92 183.246 375.578 183.246 368.99C183.246 362.402 179.008 357.06 173.781 357.06C168.553 357.06 164.315 362.402 164.315 368.99C164.315 375.578 168.553 380.92 173.781 380.92Z" fill="#4E5A7D"/>
<path d="M243.938 380.454C249.165 380.454 253.403 375.112 253.403 368.524C253.403 361.936 249.165 356.594 243.938 356.594C238.71 356.594 234.472 361.936 234.472 368.524C234.472 375.112 238.71 380.454 243.938 380.454Z" fill="#4E5A7D"/>
<path d="M262.59 294.43C245.979 297.972 225.749 300.022 203.848 300.022C181.019 300.022 159.954 297.785 142.878 293.964C136.197 292.473 129.144 294.523 124.504 299.556C113.646 311.113 106.965 326.677 106.965 343.826V349.045C138.238 351.282 169.976 352.494 201.342 352.494C233.451 352.494 265.838 351.282 297.947 348.859V343.826C297.947 326.957 291.544 311.672 280.965 300.115C276.232 295.082 269.272 292.939 262.59 294.43Z" fill="#D5B6A5"/>
<path d="M280.872 300.115C276.232 295.082 269.272 292.939 262.59 294.337C245.979 297.878 225.749 299.929 203.848 299.929C181.019 299.929 159.954 297.692 142.878 293.871C136.197 292.38 129.144 294.43 124.504 299.463C113.646 311.02 106.965 326.584 106.965 343.733V423.326C106.965 474.399 148.261 515.873 199.115 515.873H205.797C256.651 515.873 297.947 474.399 297.947 423.326V343.733C297.854 326.957 291.358 311.672 280.872 300.115Z" stroke="#4E5A7D" stroke-width="6" stroke-miterlimit="10" stroke-linecap="round" stroke-linejoin="round"/>
<path d="M301.01 342.055C234.565 345.97 167.842 345.97 101.397 342.055C96.7568 341.776 93.1376 338.234 93.1376 333.854V312.604C93.1376 307.851 97.4992 304.123 102.603 304.402C168.306 308.317 234.194 308.317 299.896 304.402C305 304.123 309.362 307.851 309.362 312.604V333.854C309.362 338.234 305.742 341.776 301.01 342.055Z" fill="#84BDE1"/>
<path opacity="0.3" d="M299.896 304.496C234.194 308.41 168.306 308.41 102.603 304.496C97.4992 304.216 93.1376 307.944 93.1376 312.697V319.78C93.1376 315.027 97.4992 311.299 102.603 311.579C168.306 315.493 234.194 315.493 299.896 311.579C305 311.299 309.362 315.027 309.362 319.78V312.604C309.362 307.944 305 304.216 299.896 304.496Z" fill="#84BDE1"/>
<path d="M301.01 342.055C234.565 345.97 167.842 345.97 101.397 342.055C96.7568 341.776 93.1376 338.234 93.1376 333.854V312.604C93.1376 307.851 97.4992 304.123 102.603 304.402C168.306 308.317 234.194 308.317 299.896 304.402C305 304.123 309.362 307.851 309.362 312.604V333.854C309.362 338.234 305.742 341.776 301.01 342.055Z" stroke="#4E5A7D" stroke-width="6" stroke-miterlimit="10" stroke-linecap="round" stroke-linejoin="round"/>
<path d="M275.304 262.928C275.304 262.928 294.421 262.928 297.762 299.37" stroke="#4E5A7D" stroke-width="4" stroke-miterlimit="10" stroke-linecap="round" stroke-linejoin="round"/>
<path d="M168.306 217.82C207.746 219.87 244.587 239.628 249.042 274.019" stroke="#4E5A7D" stroke-width="4" stroke-miterlimit="10" stroke-linecap="round" stroke-linejoin="round"/>
<path d="M141.394 220.802C146.498 219.218 152.994 217.726 159.675 217.82" stroke="#4E5A7D" stroke-width="4" stroke-miterlimit="10" stroke-linecap="round" stroke-linejoin="round"/>
<path d="M171.554 239.069C192.898 242.518 220.552 245.873 230.853 281.196" stroke="#4E5A7D" stroke-width="4" stroke-miterlimit="10" stroke-linecap="round" stroke-linejoin="round"/>
<path d="M201.25 484.372C201.25 484.372 206.539 487.54 216.098 484.372" stroke="#4E5A7D" stroke-width="6" stroke-miterlimit="10" stroke-linecap="round" stroke-linejoin="round"/>
<path d="M158.469 435.442C168.104 435.442 175.915 427.597 175.915 417.92C175.915 408.243 168.104 400.398 158.469 400.398C148.833 400.398 141.022 408.243 141.022 417.92C141.022 427.597 148.833 435.442 158.469 435.442Z" fill="#F5CFC4"/>
<path d="M250.526 435.442C260.162 435.442 267.973 427.597 267.973 417.92C267.973 408.243 260.162 400.398 250.526 400.398C240.891 400.398 233.08 408.243 233.08 417.92C233.08 427.597 240.891 435.442 250.526 435.442Z" fill="#F5CFC4"/>
<path d="M104.274 398.628H106.13V349.604H104.274C98.1488 349.604 93.1376 354.637 93.1376 360.788V387.444C93.1376 393.595 98.1488 398.628 104.274 398.628Z" fill="#FEF0E3"/>
<path d="M104.274 398.628H106.13V349.604H104.274C98.1488 349.604 93.1376 354.637 93.1376 360.788V387.444C93.1376 393.595 98.1488 398.628 104.274 398.628Z" stroke="#4E5A7D" stroke-width="6" stroke-miterlimit="10" stroke-linecap="round" stroke-linejoin="round"/>
<path d="M299.71 398.628H297.854V349.604H299.71C305.835 349.604 310.846 354.637 310.846 360.788V387.444C310.846 393.595 305.835 398.628 299.71 398.628Z" fill="#FEF0E3"/>
<path d="M299.71 398.628H297.854V349.604H299.71C305.835 349.604 310.846 354.637 310.846 360.788V387.444C310.846 393.595 305.835 398.628 299.71 398.628Z" stroke="#4E5A7D" stroke-width="6" stroke-miterlimit="10" stroke-linecap="round" stroke-linejoin="round"/>
<path d="M231.595 627.061H177.864C155.87 627.061 137.96 609.073 137.96 586.985V549.705H271.499V586.985C271.499 609.166 253.682 627.061 231.595 627.061Z" fill="#E08484"/>
<path d="M271.499 549.705V586.985C271.499 609.073 253.589 627.061 231.595 627.061H177.864C155.87 627.061 137.96 609.073 137.96 586.985V549.705" stroke="#4E5A7D" stroke-width="6" stroke-miterlimit="10" stroke-linecap="round" stroke-linejoin="round"/>
<path d="M250.341 564.058C243.474 582.791 225.47 596.118 204.498 596.118C183.432 596.118 165.429 582.698 158.562 563.964C167.285 563.032 174.152 555.576 174.152 546.536V543.274H233.544V546.536C233.544 555.949 240.968 563.685 250.341 564.058Z" fill="#FBE3D5"/>
<path d="M244.03 562.566C237.813 578.783 222.315 589.594 204.498 589.594C186.494 589.594 170.904 578.504 164.779 562.007C162.923 563.032 160.789 563.685 158.562 563.964C165.429 582.698 183.432 596.118 204.498 596.118C225.563 596.118 243.474 582.791 250.341 564.058C248.114 563.964 245.979 563.405 244.03 562.566Z" fill="#EDD4C6"/>
<path d="M233.544 543.181V546.443C233.544 554.551 239.019 561.448 246.536 563.405C248.485 563.964 249.598 566.108 248.763 567.972C240.875 584.562 224.078 596.025 204.59 596.025C184.917 596.025 168.027 584.375 160.232 567.599C159.397 565.828 160.325 563.685 162.274 563.126C169.234 560.796 174.245 554.272 174.245 546.443V543.181" stroke="#4E5A7D" stroke-width="6" stroke-miterlimit="10" stroke-linecap="round" stroke-linejoin="round"/>
<path d="M156.798 558C161.81 579.808 181.205 596.118 204.498 596.118C227.79 596.118 247.186 579.808 252.197 558" stroke="#4E5A7D" stroke-width="6" stroke-miterlimit="10" stroke-linecap="round" stroke-linejoin="round"/>
<path d="M170.162 610.751C174.261 610.751 177.586 608.832 177.586 606.464C177.586 604.096 174.261 602.176 170.162 602.176C166.062 602.176 162.738 604.096 162.738 606.464C162.738 608.832 166.062 610.751 170.162 610.751Z" fill="#4E5A7D"/>
<path d="M170.162 606.464V655.021" stroke="#4E5A7D" stroke-width="8" stroke-miterlimit="10" stroke-linecap="round" stroke-linejoin="round"/>
<path d="M237.442 610.751C241.541 610.751 244.866 608.832 244.866 606.464C244.866 604.096 241.541 602.176 237.442 602.176C233.342 602.176 230.018 604.096 230.018 606.464C230.018 608.832 233.342 610.751 237.442 610.751Z" fill="#4E5A7D"/>
<path d="M237.442 606.464V641.973" stroke="#4E5A7D" stroke-width="8" stroke-miterlimit="10" stroke-linecap="round" stroke-linejoin="round"/>
<path d="M172.853 667.882H167.285C163.758 667.882 161.16 664.62 161.995 661.172L164.408 650.361H175.73L178.142 661.172C178.978 664.62 176.379 667.882 172.853 667.882Z" fill="#FEF0E3"/>
<path d="M172.853 667.882H167.285C163.758 667.882 161.16 664.62 161.995 661.172L164.408 650.361H175.73L178.142 661.172C178.978 664.62 176.379 667.882 172.853 667.882Z" stroke="#4E5A7D" stroke-width="6" stroke-miterlimit="10" stroke-linecap="round" stroke-linejoin="round"/>
<path d="M240.226 659.122H234.658C231.131 659.122 228.533 655.86 229.368 652.411L231.781 641.6H243.102L245.515 652.411C246.35 655.86 243.752 659.122 240.226 659.122Z" fill="#FEF0E3"/>
<path d="M240.226 659.122H234.658C231.131 659.122 228.533 655.86 229.368 652.411L231.781 641.6H243.102L245.515 652.411C246.35 655.86 243.752 659.122 240.226 659.122Z" stroke="#4E5A7D" stroke-width="6" stroke-miterlimit="10" stroke-linecap="round" stroke-linejoin="round"/>
<path opacity="0.58" d="M196.424 560.236C196.424 560.236 199.394 560.516 202.734 563.964C202.734 563.964 206.632 560.236 209.973 560.236" stroke="#D5B6A5" stroke-width="6" stroke-miterlimit="10" stroke-linecap="round" stroke-linejoin="round"/>
<path d="M207.746 277.281C207.746 277.281 205.704 265.538 185.102 259.107" stroke="#4E5A7D" stroke-width="4" stroke-miterlimit="10" stroke-linecap="round" stroke-linejoin="round"/>
<path d="M121.349 650.361V685.87" stroke="#4E5A7D" stroke-width="6" stroke-miterlimit="10" stroke-linecap="round" stroke-linejoin="round"/>
<path d="M284.213 650.361V685.87" stroke="#4E5A7D" stroke-width="6" stroke-miterlimit="10" stroke-linecap="round" stroke-linejoin="round"/>
<path d="M409.214 87.0599L400.12 77.5535C391.304 68.3267 376.642 68.1403 368.011 77.5535C359.659 86.6871 356.968 103.37 368.29 121.917C379.704 140.464 409.122 153.046 409.122 153.046C409.122 153.046 438.632 140.464 449.954 121.917C461.368 103.37 458.677 86.6871 450.232 77.5535C441.602 68.1403 426.939 68.3267 418.123 77.5535L409.214 87.0599Z" fill="white"/>
<path d="M409.214 87.0599L400.12 77.5535C391.304 68.3267 376.642 68.1403 368.011 77.5535C359.659 86.6871 356.968 103.37 368.29 121.917C379.704 140.464 409.122 153.046 409.122 153.046C409.122 153.046 438.632 140.464 449.954 121.917C461.368 103.37 458.677 86.6871 450.232 77.5535C441.602 68.1403 426.939 68.3267 418.123 77.5535L409.214 87.0599Z" stroke="#4E5A7D" stroke-width="3" stroke-miterlimit="10" stroke-linecap="round" stroke-linejoin="round"/>
<path d="M377.755 117.163H392.418L399.563 98.3371L409.214 131.423L416.082 116.325L421.371 124.619L428.424 98.3371L434.92 114.927H442.994" stroke="#4E5A7D" stroke-width="3" stroke-miterlimit="10" stroke-linecap="round" stroke-linejoin="round"/>
<path d="M9.3241 50.1981C9.3241 50.1981 -11.6487 100.06 -11.6487 119.632C-11.6487 139.204 -9.97829 144.517 -9.97829 144.517C-9.97829 144.517 35.5865 151.227 60.8281 139.297C86.1625 127.368 93.4009 110.778 93.4009 110.778C93.4009 110.778 93.1225 81.9793 76.6041 80.1153C69.8297 79.3697 60.2713 80.5813 56.8377 89.5285C52.1049 101.831 55.4457 106.398 55.4457 106.398C51.5481 102.483 45.2377 96.9845 32.6169 96.9845C19.9961 96.9845 13.3145 110.778 13.3145 110.778L14.2425 70.7021L36.7001 68.7449L40.8761 50.1981L27.5129 34.5405L9.3241 50.1981Z" fill="white"/>
<path d="M9.3241 50.1981C9.3241 50.1981 -11.6487 100.06 -11.6487 119.632C-11.6487 139.204 -9.97829 144.517 -9.97829 144.517C-9.97829 144.517 35.5865 151.227 60.8281 139.297C86.1625 127.368 93.4009 110.778 93.4009 110.778C93.4009 110.778 93.1225 81.9793 76.6041 80.1153C69.8297 79.3697 60.2713 80.5813 56.8377 89.5285C52.1049 101.831 55.4457 106.398 55.4457 106.398C51.5481 102.483 45.2377 96.9845 32.6169 96.9845C19.9961 96.9845 13.3145 110.778 13.3145 110.778L14.2425 70.7021L36.7001 68.7449L40.8761 50.1981L27.5129 34.5405L9.3241 50.1981Z" stroke="#4E5A7D" stroke-width="3" stroke-miterlimit="10" stroke-linecap="round" stroke-linejoin="round"/>
<path d="M27.6984 122.801C27.6984 122.801 39.4841 127.368 50.5273 122.801" stroke="#4E5A7D" stroke-width="3" stroke-miterlimit="10" stroke-linecap="round" stroke-linejoin="round"/>
<path d="M0.508057 124.758V135.662H9.32406" stroke="#4E5A7D" stroke-width="3" stroke-miterlimit="10" stroke-linecap="round" stroke-linejoin="round"/>
<path d="M54.5667 47.7628L61.0935 47.1852" stroke="white" stroke-width="2" stroke-miterlimit="10" stroke-linecap="round" stroke-linejoin="round"/>
<path d="M49.4997 41.5034L53.4395 35.0366" stroke="white" stroke-width="2" stroke-miterlimit="10" stroke-linecap="round" stroke-linejoin="round"/>
<path d="M52.808 44.0199L59.1719 39.24" stroke="white" stroke-width="2" stroke-miterlimit="10" stroke-linecap="round" stroke-linejoin="round"/>
<path d="M413.112 71.9616L416.267 65.7172" stroke="white" stroke-width="2" stroke-miterlimit="10" stroke-linecap="round" stroke-linejoin="round"/>
<path d="M406.059 72.8936L402.718 65.7172" stroke="white" stroke-width="2" stroke-miterlimit="10" stroke-linecap="round" stroke-linejoin="round"/>
<path d="M409.214 71.9615V61.9891" stroke="white" stroke-width="2" stroke-miterlimit="10" stroke-linecap="round" stroke-linejoin="round"/>
<path d="M-63.7872 685.87H381.653" stroke="#4E5A7D" stroke-width="6" stroke-miterlimit="10" stroke-linecap="round" stroke-linejoin="round"/>
<path d="M407.173 685.87H439.189" stroke="#4E5A7D" stroke-width="6" stroke-miterlimit="10" stroke-linecap="round" stroke-linejoin="round"/>
</svg>
